<svg id="Layer_1" height="512" viewBox="0 0 64 64" width="512" xmlns="http://www.w3.org/2000/svg" data-name="Layer 1"><path d="m13.163 41.837-9.456 9.456a1 1 0 0 0 0 1.414l7.586 7.586a1 1 0 0 0 1.414 0l3.293-3.293a1.415 1.415 0 0 0 2 0l4.413-4.413.617-.883z" fill="#fbdfb2"/><path d="m8 47 2.5 2.5a1.415 1.415 0 0 1 0 2 1.415 1.415 0 0 1 -2 0l-2.5-2.5z" fill="#dbc39c"/><path d="m11.114 43.886a16.216 16.216 0 0 0 1.095 1.9l6.053 5.947a15.335 15.335 0 0 0 3.283 1.717l.868-.868.617-.883-9.867-9.867z" fill="#dbc39c"/><path d="m59.175 3.574c-10.247 3.317-59.7 20.6-45.966 41.217l6.053 5.947c20.683 14.085 37.879-35.628 41.17-45.911a1 1 0 0 0 -1.257-1.253z" fill="#912044"/><path d="m28.586 33.414-11.586 11.586 1.983 1.983 11.6-11.569a1.415 1.415 0 0 0 0-2 1.415 1.415 0 0 0 -1.997 0z" fill="#fbb03b"/><path d="m49.355 22.658c-4.655-2.758-18.769 10.756-18.769 10.756s12.214-12.7 19.958-13.156a1 1 0 0 1 1.051.994 23.66 23.66 0 0 1 -2.424 10.748s2.194-8.151.184-9.342z" fill="#801c3c"/><path d="m51.232 9.5c-2.5-3.056-17.269 4.411-17.269 4.411l12.7-2.189a1 1 0 0 1 1.1 1.334c-2.668 7.151-8.412 11.875-17.174 20.358l11.781-9.276a28.427 28.427 0 0 0 7.992-9.694c1.062-2.156 1.605-4.044.87-4.944z" fill="#801c3c"/><path d="m60.432 4.827a1 1 0 0 0 -1.257-1.253c-1.644.532-4.3 1.426-7.541 2.633l5.692-.286a1 1 0 0 1 1.05 1.023l-.1 4.2c.968-2.685 1.697-4.885 2.156-6.317z" fill="#9e264c"/><path d="m13 54 3 3-2 2-3-3a1.415 1.415 0 0 1 0-2 1.415 1.415 0 0 1 2 0z" fill="#dbc39c"/><path d="m51.464 11.526a13.082 13.082 0 0 1 -1.1 2.918l7.536-2.262c.349-.949.671-1.847.965-2.682z" fill="#801c3c"/><path d="m34.374 37.508a1.415 1.415 0 0 0 -2-.077l-6.529 6.046 3.443-3.188 2 2 3.012-2.782a1.415 1.415 0 0 0 .074-1.999z" fill="#fbb03b"/><path d="m26.019 30.262a1.415 1.415 0 0 0 -2 0l-2.379 2.378 2 2 2.379-2.378a1.415 1.415 0 0 0 0-2z" fill="#fbb03b"/><g fill="#fbdfb2"><path d="m25.846 43.477a14.88 14.88 0 0 1 -3.973 2.638l-4.719 2.551 2.064 2.028c2.636-.669 6.853-3.571 8.765-5.341l3.308-3.062-2-2z"/><path d="m17.228 48.739 10.268-10.243-1.996-1.996-10.273 10.273z"/><path d="m17.934 36.346a30.531 30.531 0 0 0 -5.11 7.823c.125.207.247.414.385.622l1.814 1.782c.262-2.114 2.664-5.7 3.894-7.142q.387-.454.81-.877l3.913-3.914-2-2z"/></g></svg>