<svg id="Layer_1" height="512" viewBox="0 0 64 64" width="512" xmlns="http://www.w3.org/2000/svg" data-name="Layer 1"><path d="m34.017 16.358a2.771 2.771 0 0 0 2.768 2.642h1.015a6.02 6.02 0 0 1 6.855-2.776c-.777-2.403-1.991-4.224-4.655-4.224-2.857 0-5.15 2.668-6 3.129v.871z" fill="#d61919"/><path d="m25 18.683a9.469 9.469 0 0 0 3.985 1.567v-5.121c-.85-.461-3.143-3.129-6-3.129-2.668 0-3.881 1.825-4.661 4.232a6.022 6.022 0 0 1 6.676 2.451z" fill="#d61919"/><path d="m34.145 17.038c.945-.638 3.145-3.038 5.855-3.038a4.069 4.069 0 0 1 3.672 2.045 6.585 6.585 0 0 1 .986.179c-.78-2.403-1.994-4.224-4.658-4.224-2.857 0-5.15 2.668-6 3.129v.871l.017.358a2.737 2.737 0 0 0 .128.68z" fill="#e81b1b"/><path d="m22.985 12c-2.668 0-3.881 1.825-4.661 4.232a6.38 6.38 0 0 1 .818-.154 4.138 4.138 0 0 1 3.843-2.328c2.857 0 5.15 2.667 6 3.129v-1.75c-.85-.461-3.143-3.129-6-3.129z" fill="#e81b1b"/><path d="m51.049 24.909a9.647 9.647 0 0 0 -4.425-7.832 7.515 7.515 0 0 0 -1.966-.853 6.02 6.02 0 0 0 -6.858 2.776c-8.144 3.428-12.8-.317-12.8-.317a6.022 6.022 0 0 0 -6.676-2.451 7.554 7.554 0 0 0 -2.066.918 9.6 9.6 0 0 0 -4.3 7.711c-.788 16.807 4.227 36.139 15.042 36.139a5.993 5.993 0 0 0 4.975-2.645h.05a5.993 5.993 0 0 0 4.975 2.645 8.4 8.4 0 0 0 4.01-1.013c7.796-4.166 10.737-20.552 10.039-35.078z" fill="#d61919"/><path d="m37.8 19h-1.015a2.771 2.771 0 0 1 -2.768-2.642l-.017-.358v-2a5 5 0 0 1 5-5c-1.1 0-2-1.343-2-3s.9-3 2-3a10 10 0 0 0 -10 10v3a2.772 2.772 0 0 1 -2.99 2.763l-1.01-.08s4.659 3.745 12.8.317z" fill="#548513"/><path d="m39.1 18c4.029 0 8.9 2 8.9 7 0 0 1 18-1.733 29.243 3.855-7.106 5.292-18.714 4.782-29.334a9.647 9.647 0 0 0 -4.425-7.832 7.515 7.515 0 0 0 -1.966-.853 6.013 6.013 0 0 0 -6.158 1.825 4.251 4.251 0 0 1 .6-.049z" fill="#e81b1b"/><path d="m15 27c0-8 5.451-8.978 9.469-9a6.027 6.027 0 0 0 -6.145-1.77 7.554 7.554 0 0 0 -2.066.918 9.6 9.6 0 0 0 -4.3 7.711c-.538 11.511 1.647 24.2 6.551 31.062-4.509-13.921-3.509-28.921-3.509-28.921z" fill="#e81b1b"/><path d="m35.153 18.456a13.623 13.623 0 0 1 -7.65-.008 2.742 2.742 0 0 1 -1.493.315l-1.01-.08s4.659 3.745 12.8.317h-1.015a2.748 2.748 0 0 1 -1.632-.544z" fill="#526b2f"/><path d="m37.426 7.832a4.983 4.983 0 0 0 -3.426 4.722v1.446a5 5 0 0 1 5-5 1.879 1.879 0 0 1 -1.574-1.168z" fill="#526b2f"/><ellipse cx="39" cy="6" fill="#587a29" rx="2" ry="3"/><path d="m45 25.146c0-3.394-3.686-6.146-7-6.146-2.088 0-4.925 2.44-6 4.1-1.075-1.66-3.912-4.1-6-4.1-3.314 0-7 2.752-7 6.146 0 0 .113 30.184 4 34.83v.024a8.508 8.508 0 0 0 4 1 5.956 5.956 0 0 0 4.975-2.71h.05a5.956 5.956 0 0 0 4.975 2.71 8.239 8.239 0 0 0 4.01-1.038c5.99-7.191 3.99-34.816 3.99-34.816z" fill="#e81b1b"/><g fill="#f23d3d"><ellipse cx="38.902" cy="23.623" rx="1.5" ry="2" transform="matrix(.469 -.883 .883 .469 -.201 46.912)"/><circle cx="41.902" cy="26.123" r="1"/><ellipse cx="25.098" cy="23.623" rx="2" ry="1.5" transform="matrix(.883 -.469 .469 .883 -8.145 14.522)"/><circle cx="22.098" cy="26.123" r="1"/></g><path d="m31.975 58.29h.05a6.128 6.128 0 0 0 .894 1.064 1.039 1.039 0 0 0 .081-.4v-37.088a8.9 8.9 0 0 0 -1 1.234 8.9 8.9 0 0 0 -1-1.232v37.083a1.039 1.039 0 0 0 .081.4 6.128 6.128 0 0 0 .894-1.061z" fill="#d61919"/></svg>