<svg id="Layer_1" height="512" viewBox="0 0 64 64" width="512" xmlns="http://www.w3.org/2000/svg" data-name="Layer 1"><path d="m42.252 32.5a8.7 8.7 0 0 1 .3 7.125 1 1 0 0 0 .925 1.375h10.7a1 1 0 0 0 .981-.8l.386-1.93a8.7 8.7 0 0 0 -.278-4.459l-1.266-3.811h-13z" fill="#f7ddb8"/><path d="m55.32 34c-.02-.064-.03-.129-.051-.193l-1.269-3.807h-13l1.252 2.5a8.7 8.7 0 0 1 .3 7.125 1 1 0 0 0 .925 1.375h2.656a8.444 8.444 0 0 1 8.315-7z" fill="#f2d1a2"/><path d="m10.166 41.416a13.479 13.479 0 0 1 .273 9.268 1 1 0 0 0 .948 1.316h17.226a1 1 0 0 0 .948-1.316l-.429-1.284a13.478 13.478 0 0 1 -.43-6.906l.298-1.494h-19z" fill="#f7ddb8"/><path d="m29.132 49.4a13.478 13.478 0 0 1 -.43-6.906l.298-1.494h-19l.166.416a13.436 13.436 0 0 1 .883 3.584h5.951a7 7 0 0 1 7 7h4.613a1 1 0 0 0 .948-1.316z" fill="#f2d1a2"/><path d="m46 12h2a13 13 0 0 1 13 13v2a3 3 0 0 1 -3 3h-22a3 3 0 0 1 -3-3v-2a13 13 0 0 1 13-13z" fill="#a26446"/><path d="m48 12h-2a13 13 0 0 1 13 13v2a3 3 0 0 1 -3 3h2a3 3 0 0 0 3-3v-2a13 13 0 0 0 -13-13z" fill="#965d41"/><path d="m21 21h-2a15 15 0 0 0 -15 15v2a3 3 0 0 0 3 3h26a3 3 0 0 0 3-3v-2a15 15 0 0 0 -15-15z" fill="#a26446"/><path d="m21 21h-2a14.909 14.909 0 0 0 -7.631 2.1 14.938 14.938 0 0 1 5.631-1.1h2a15 15 0 0 1 15 15v2a2.98 2.98 0 0 1 -.758 1.976 2.991 2.991 0 0 0 2.758-2.976v-2a15 15 0 0 0 -15-15z" fill="#965d41"/><g fill="#ab694a"><path d="m37 24a1 1 0 0 1 -1-1v-.675a9.762 9.762 0 0 1 6.683-9.273 1 1 0 1 1 .633 1.9 7.765 7.765 0 0 0 -5.316 7.374v.674a1 1 0 0 1 -1 1z"/><path d="m8 34.055a1 1 0 0 1 -1-1v-.675a9.762 9.762 0 0 1 6.683-9.273 1 1 0 0 1 .633 1.9 7.765 7.765 0 0 0 -5.316 7.373v.675a1 1 0 0 1 -1 1z"/></g></svg>